<svg xmlns="http://www.w3.org/2000/svg" width="18" height="18" viewBox="0 0 18 18">
  <path fill="#363636" d="M4,2 C4,3.1 3.3,4 2,4 C0.800000001,4 0,3.1 0,2.1 C0,0.999999999 0.800000001,0 2,0 C3.2,0 4,0.9 4,2 Z M0,18 L4,18 L4,5 L0,5 L0,18 Z M13.6,5.20000002 C11.5,5.20000002 10.3,6.39999999 9.80000001,7.2 L9.70000002,7.2 L9.49999999,5.49999999 L5.9,5.49999999 C5.9,6.60000001 5.99999999,7.90000002 5.99999999,9.4 L5.99999999,18 L9.99999999,18 L9.99999999,10.9 C9.99999999,10.5 9.99999999,10.2 10.1,9.9 C10.4,9.19999998 10.9,8.29999998 12,8.29999998 C13.4,8.29999998 14,9.49999999 14,11.1 L14,18 L18,18 L18,10.6 C18,6.89999998 16.1,5.20000002 13.6,5.20000002 Z"/>
</svg>
