<svg xmlns="http://www.w3.org/2000/svg" width="22" height="18" viewBox="0 0 22 18">
  <path fill="#363636" d="M19.6067009,4.60764036 C19.6161563,4.79990409 19.6197021,4.99454146 19.6197021,5.18680518 C19.6197021,11.109003 15.131917,17.9355524 6.92578265,17.9355524 C4.40472772,17.9355524 2.06096215,17.1937942 0.0859584862,15.9215305 C0.435809524,15.963069 0.79038828,15.9844316 1.14969475,15.9844316 C3.2417094,15.9844316 5.16470818,15.2675964 6.69057877,14.0677283 C4.73921369,14.030937 3.09042247,12.7373107 2.52309646,10.9570909 C2.79494017,11.0081239 3.07505739,11.0354206 3.36226618,11.0354206 C3.77003175,11.0354206 4.16479609,10.982014 4.53828572,10.8799481 C2.49709402,10.466937 0.959404151,8.65704697 0.959404151,6.48517883 C0.959404151,6.4661898 0.959404151,6.44838762 0.959404151,6.42939858 C1.5610061,6.76526672 2.25007082,6.96702498 2.98050305,6.99076126 C1.78320879,6.18610191 0.994862028,4.81651948 0.994862028,3.26060739 C0.994862028,2.44051948 1.21470085,1.67027772 1.60000977,1.00803596 C3.79957997,3.7199041 7.0888889,5.50249749 10.7966007,5.69001397 C10.7209573,5.36126672 10.6819536,5.02065134 10.6819536,4.66816782 C10.6819536,2.19484915 12.678232,0.190321678 15.1425544,0.190321678 C16.4261294,0.190321678 17.585602,0.732695303 18.3999512,1.60381618 C19.4152283,1.40205794 20.3702271,1.0293986 21.2330354,0.516695303 C20.8997314,1.56227772 20.1917558,2.44051948 19.271033,2.99476124 C20.1740269,2.88557442 21.0321074,2.64702498 21.8334554,2.28979421 C21.2353993,3.1893986 20.4789646,3.97744256 19.6067009,4.60764036 Z"/>
</svg>
