<svg xmlns="http://www.w3.org/2000/svg" width="34" height="34" viewBox="0 0 34 34"><path d="M16.362,13.2174667 C14.3702667,9.67693334 12.2392,6.78906666 12.0837333,6.57640001 C8.87026667,8.09586666 6.47226667,11.0570666 5.7228,14.624 C6.02493333,14.6298666 10.8297333,14.6870667 16.362,13.2174667 Z M17.7964,17.0894667 C17.946,17.0410667 18.0985333,16.9956 18.2496,16.9516 C17.9606667,16.296 17.6453334,15.6389333 17.3153333,14.9921333 C11.3812,16.7697333 5.6876,16.6406667 5.48666667,16.6348 C5.48226667,16.758 5.4764,16.8782666 5.4764,17.0014666 C5.4764,19.9626668 6.59546667,22.6642667 8.4332,24.7044 L8.42586668,24.6956 C8.42586668,24.6956 11.5792,19.1017334 17.7964,17.0894667 Z M9.91746667,26.0845334 L9.91746667,26.0786666 C9.8324,26.0126666 9.74146667,25.9525333 9.65640001,25.8806667 C9.81186668,26.0053334 9.91746667,26.0845334 9.91746667,26.0845334 Z M24.6105333,8.35253334 C22.5806668,6.56613334 19.9186666,5.4764 17,5.4764 C16.0628,5.4764 15.1549334,5.59080001 14.2837333,5.80053334 C14.4597333,6.0352 16.6230667,8.9084 18.5928001,12.5237333 C22.9370666,10.8972 24.5782666,8.39946666 24.6105333,8.35253334 Z M17,30.4933333 C9.54933334,30.4933333 3.50813333,24.4521334 3.50813333,17.0014666 C3.50666667,9.54786667 9.54786667,3.50666667 17,3.50666667 C24.4536,3.50666667 30.4933333,9.54786667 30.4933333,17.0014666 C30.4933333,24.4521334 24.4536,30.4933333 17,30.4933333 Z M18.9594666,18.8861334 C12.1966666,21.2430666 9.96293334,25.9818666 9.91746667,26.0786666 C11.874,27.6054667 14.3262667,28.5221333 16.9985334,28.5221333 C18.5942666,28.5221333 20.1152,28.198 21.4968,27.6113333 C21.3266667,26.6008001 20.6564001,23.0705333 19.0342666,18.8597334 C19.0107999,18.8685333 18.9858667,18.8773334 18.9594666,18.8861334 Z M19.4786667,14.2426667 C19.7485334,14.7897333 20.0037333,15.3485333 20.2457334,15.9132 C20.3322668,16.1112 20.4129334,16.3121333 20.4950667,16.5086666 C24.4741333,16.0070667 28.3930667,16.8577333 28.5221333,16.8841333 C28.4942668,14.1517333 27.516,11.6452 25.9012,9.67986667 C25.8748,9.71359999 24.0253333,12.3829334 19.4786667,14.2426667 Z M21.1961334,18.3273334 C22.7082667,22.4868 23.3213334,25.8689334 23.4386666,26.5567999 C26.0258666,24.81 27.8650666,22.0394666 28.3769334,18.8274667 C28.1481334,18.7541334 24.9214666,17.7318667 21.1961334,18.3273334 Z"/></svg>
