<svg xmlns="http://www.w3.org/2000/svg" width="34" height="34" viewBox="0 0 34 34"><path d="M22.2420807,19.1816667 C21.0101087,19.1816667 20.0114907,20.5266667 20.0114907,22.18 C20.0114907,23.8366667 21.0101087,25.1816667 22.2420807,25.1816667 C23.4740528,25.1816667 24.4726708,23.8366667 24.4726708,22.18 C24.4709549,20.5266667 23.4740528,19.1816667 22.2420807,19.1816667 Z M30.0079657,11.3766667 C30.2636258,10.7683333 30.2739208,7.31166667 28.9184083,4 C28.9184083,4 25.8110248,4.33166667 21.1096273,7.46666667 C20.1230202,7.2 18.4535092,7.07 16.7874302,7.07 C15.1179192,7.07 13.4501242,7.2 12.4635171,7.46666667 C7.7604037,4.33166667 4.65302018,4 4.65302018,4 C3.29922359,7.31166667 3.3129503,10.7683333 3.56517857,11.3766667 C1.97288043,13.0566667 1,15.075 1,17.8283333 C1,29.805 11.231545,29.9966667 13.8121662,29.9966667 C14.3989829,29.9966667 15.5588897,30 16.7874302,30 C18.0142546,30 19.1758773,29.9966667 19.7592624,29.9966667 C22.3433152,29.9966667 32.5714286,29.805 32.5714286,17.8283333 C32.5714286,15.075 31.6002639,13.0566667 30.0079657,11.3766667 Z M16.8337577,28.525 L16.7376708,28.525 C10.2672438,28.525 5.22611025,27.7766667 5.22611025,21.6666667 C5.22611025,20.2016667 5.75802018,18.845 7.02259316,17.7183333 C9.12792702,15.84 12.6934394,16.8333333 16.7376708,16.8333333 C16.7548292,16.8333333 16.7719876,16.8333333 16.7874302,16.8333333 C16.8045885,16.8333333 16.8183152,16.8333333 16.8337577,16.8333333 C20.8779891,16.8333333 24.4452173,15.84 26.552267,17.7183333 C27.8134083,18.845 28.3453182,20.2016667 28.3453182,21.6666667 C28.3453182,27.7766667 23.3059006,28.525 16.8337577,28.525 Z M11.3310636,19.1816667 C10.0990916,19.1816667 9.10047358,20.5266667 9.10047358,22.18 C9.10047358,23.8366667 10.0990916,25.1816667 11.3310636,25.1816667 C12.5647515,25.1816667 13.5633696,23.8366667 13.5633696,22.18 C13.5633696,20.5266667 12.5647515,19.1816667 11.3310636,19.1816667 Z"/></svg>
