<svg xmlns="http://www.w3.org/2000/svg" width="34" height="34" viewBox="0 0 34 34"><path d="M30.9157822,11.2278155 C30.8925212,10.0664048 30.6724905,8.91734663 30.2650467,7.82950222 C29.9135057,6.89532953 29.3624282,6.04907943 28.65024,5.34976 C27.9509206,4.63757182 27.1046705,4.08649427 26.1704978,3.73495333 C25.0826534,3.32750949 23.9335952,3.10747886 22.7721844,3.08421778 C21.2789133,3.01614667 20.8021978,3 17,3 C13.1978022,3 12.7210867,3.01614667 11.2278155,3.08421778 C10.0664048,3.10747886 8.91734663,3.32750949 7.82950222,3.73495333 C6.89532953,4.08649427 6.04907943,4.63757182 5.34976,5.34976 C4.63757182,6.04907943 4.08649427,6.89532953 3.73495333,7.82950222 C3.32750949,8.91734663 3.10747886,10.0664048 3.08421778,11.2278155 C3.01614667,12.7210867 3,13.1978022 3,17 C3,20.8021978 3.01614667,21.2789133 3.08421778,22.7721844 C3.10747886,23.9335952 3.32750949,25.0826534 3.73495333,26.1704978 C4.08649427,27.1046705 4.63757182,27.9509206 5.34976,28.65024 C6.04905398,29.3624592 6.89531136,29.9135417 7.82950222,30.2650467 C8.91734663,30.6724905 10.0664048,30.8925212 11.2278155,30.9157822 C12.7210867,30.9839622 13.1978022,31 17,31 C20.8021978,31 21.2789133,30.9839622 22.7721844,30.9157822 C23.9335952,30.8925212 25.0826534,30.6724905 26.1704978,30.2650467 C28.0510624,29.5377294 29.5377138,28.051078 30.2650311,26.1705133 C30.672475,25.082669 30.8925057,23.9336108 30.9157667,22.7722 C30.9838533,21.2789133 31,20.8021978 31,17 C31,13.1978022 30.9838533,12.7210867 30.9157822,11.2278155 Z M28.3958911,22.6572133 C28.3853836,23.544961 28.2222976,24.424291 27.9137622,25.2567644 C27.4428282,26.4777634 26.4777606,27.4428366 25.2567644,27.9137778 C24.4242879,28.2223025 23.5449599,28.385388 22.6572133,28.3959067 C21.1811311,28.4632 20.7384044,28.4774489 17,28.4774489 C13.2615955,28.4774489 12.8188689,28.4632 11.3427867,28.3958911 C10.455041,28.3853776 9.575713,28.2222972 8.74323556,27.9137778 C8.13512264,27.6893985 7.58504612,27.3315472 7.13346889,26.8665467 C6.6684609,26.4149666 6.31060399,25.8648845 6.08622222,25.2567644 C5.7776868,24.424291 5.61460082,23.544961 5.60409333,22.6572133 C5.5368,21.1809289 5.52255111,20.7382178 5.52255111,17 C5.52255111,13.2617822 5.5368,12.8190711 5.60410889,11.3427867 C5.6146225,10.455041 5.77770288,9.575713 6.08622222,8.74323556 C6.31060151,8.13512264 6.66845292,7.58504612 7.13345333,7.13346889 C7.58503346,6.6684609 8.13511561,6.31060399 8.74323556,6.08622222 C9.57571206,5.77769758 10.4550401,5.61461194 11.3427867,5.60409333 C12.8190711,5.5368 13.2617822,5.52255111 17,5.52255111 C20.7382178,5.52255111 21.1809289,5.5368 22.6572133,5.60410889 C23.5449599,5.61462749 24.4242879,5.77771312 25.2567644,6.08623778 C25.8648773,6.31061707 26.4149538,6.66846847 26.8665311,7.13346889 C27.3315372,7.58504454 27.689394,8.13512118 27.9137778,8.74323556 C28.2223025,9.57571206 28.385388,10.4550401 28.3959067,11.3427867 C28.4632156,12.8190089 28.4774644,13.2618755 28.4774644,17 C28.4774644,20.7381244 28.4632,21.1809289 28.3958911,22.6572133 Z M17,9.81078222 C13.0295047,9.81078222 9.81078222,13.0295047 9.81078222,17 C9.81078222,20.9704954 13.0295047,24.1892178 17,24.1892178 C20.9704954,24.1892178 24.1892178,20.9704954 24.1892178,17 C24.1891748,13.0295224 20.9704776,9.81082517 17,9.81078222 Z M17,21.6666667 C14.4226712,21.6666667 12.3333333,19.5773288 12.3333333,17 C12.3333333,14.4226712 14.4226712,12.3333333 17,12.3333333 C19.5773288,12.3333333 21.6666667,14.4226712 21.6666667,17 C21.6666667,18.2376769 21.1750014,19.4246619 20.2998316,20.2998316 C19.4246619,21.1750014 18.2376769,21.6666667 17,21.6666667 Z M26.1532311,9.5268 C26.1532311,10.4546384 25.4010694,11.2068 24.4732311,11.2068 C23.5453928,11.2068 22.7932311,10.4546384 22.7932311,9.5268 C22.7932311,8.59896162 23.5453928,7.8468 24.4732311,7.8468 C25.4010694,7.8468 26.1532311,8.59896162 26.1532311,9.5268 Z"/></svg>
