<svg xmlns="http://www.w3.org/2000/svg" width="34" height="34" viewBox="0 0 34 34"><path fill="#363636" d="M5.77777778,2.88888889 C5.77777778,4.47777778 4.76666667,5.77777778 2.88888889,5.77777778 C1.15555556,5.77777778 0,4.47777778 0,3.03333333 C0,1.44444444 1.15555556,0 2.88888889,0 C4.62222222,0 5.77777778,1.3 5.77777778,2.88888889 Z M0,26 L5.77777778,26 L5.77777778,7.22222222 L0,7.22222222 L0,26 Z M19.6444444,7.51111114 C16.6111111,7.51111114 14.8777778,9.24444443 14.1555556,10.4 L14.0111111,10.4 L13.7222222,7.94444443 L8.52222222,7.94444443 C8.52222222,9.53333335 8.66666665,11.4111111 8.66666665,13.5777778 L8.66666665,26 L14.4444444,26 L14.4444444,15.7444444 C14.4444444,15.1666667 14.4444444,14.7333333 14.5888889,14.3 C15.0222222,13.2888889 15.7444444,11.9888889 17.3333333,11.9888889 C19.3555556,11.9888889 20.2222222,13.7222222 20.2222222,16.0333333 L20.2222222,26 L26,26 L26,15.3111111 C26,9.96666664 23.2555556,7.51111114 19.6444444,7.51111114 Z" transform="translate(4 4)"/></svg>
