<svg xmlns="http://www.w3.org/2000/svg" width="27" height="18" viewBox="0 0 27 18">
  <path fill="#363636" d="M10.8724898,8.05848981 C10.8724898,8.05848981 13.4208979,7.86048981 13.4208979,4.74636734 C13.4208979,1.62820408 11.3358367,0.11155102 8.69314286,0.11155102 L0,0.11155102 L0,17.5220816 L8.69314286,17.5220816 C8.69314286,17.5220816 14.0014286,17.6958367 14.0014286,12.3821633 C14.0000816,12.3808163 14.2317551,8.05848981 10.8724898,8.05848981 Z M3.83069388,3.20412245 L8.69314286,3.20412245 C8.69314286,3.20412245 9.87575512,3.20412245 9.87575512,5.01440816 C9.87575512,6.82738774 9.18073468,7.09004081 8.39142855,7.09004081 L3.83069388,7.09004081 L3.83069388,3.20412245 Z M8.44665306,14.4268163 L3.83069388,14.4268163 L3.83069388,9.77313347 L8.69314286,9.77314286 C8.69314286,9.77314286 10.4549388,9.74889793 10.4549388,12.1639592 C10.4549388,14.2005306 9.13897958,14.412 8.44665306,14.4268163 Z M21.0782449,4.53893878 C14.652,4.53893878 14.6573877,11.2291837 14.6573877,11.2291837 C14.6573877,11.2291837 14.2182857,17.8844082 21.0782449,17.8844082 C21.0782449,17.8844082 26.7933061,18.2265306 26.7933061,13.2549796 L23.8542857,13.2549796 C23.8542857,13.2549796 23.9512653,15.1285714 21.1765714,15.1285714 C21.1765714,15.1285714 18.2348571,15.3333061 18.2348571,12.0979592 L26.8862449,12.0979592 C26.8875919,12.0966122 27.8412245,4.53893878 21.0782449,4.53893878 Z M23.6926727,9.77314286 L18.2052245,9.77314286 C18.2052245,9.77314286 18.5635102,7.09004081 21.1442449,7.09004081 C23.7249796,7.09004081 23.6926727,9.77314286 23.6926727,9.77314286 Z M24.375551,1.13387755 L17.4832653,1.13387755 L17.4832653,3.28089796 L24.375551,3.28089796 L24.375551,1.13387755 Z"/>
</svg>
