<svg xmlns="http://www.w3.org/2000/svg" width="18" height="18" viewBox="0 0 18 18">
  <path fill="#363636" d="M17.94586,5.28930999 C17.9309065,4.5426888 17.7894582,3.80400855 17.52753,3.10468 C17.3015394,2.50414041 16.9472753,1.96012249 16.48944,1.51056 C16.0398775,1.05272474 15.4958596,0.698460602 14.89532,0.472469998 C14.1959915,0.210541813 13.4573112,0.0690935499 12.71069,0.05414 C11.75073,0.01038 11.44427,0 9,0 C6.55573001,0 6.24927002,0.01038 5.28930999,0.05414 C4.5426888,0.0690935499 3.80400855,0.210541813 3.10468,0.472469998 C2.50414041,0.698460602 1.96012249,1.05272474 1.51056,1.51056 C1.05272474,1.96012249 0.698460602,2.50414041 0.472469998,3.10468 C0.210541813,3.80400855 0.0690935499,4.5426888 0.05414,5.28930999 C0.01038,6.24927002 0,6.55573001 0,9 C0,11.44427 0.01038,11.75073 0.05414,12.71069 C0.0690935499,13.4573112 0.210541813,14.1959915 0.472469998,14.89532 C0.698460602,15.4958596 1.05272474,16.0398775 1.51056,16.48944 C1.96010613,16.9472952 2.50412873,17.3015625 3.10468,17.52753 C3.80400855,17.7894582 4.5426888,17.9309065 5.28930999,17.94586 C6.24927002,17.98969 6.55573001,18 9,18 C11.44427,18 11.75073,17.98969 12.71069,17.94586 C13.4573112,17.9309065 14.1959915,17.7894582 14.89532,17.52753 C16.1042544,17.0599689 17.0599589,16.1042644 17.52752,14.89533 C17.7894482,14.1960015 17.9308965,13.4573212 17.94585,12.7107 C17.98962,11.75073 18,11.44427 18,9 C18,6.55573001 17.98962,6.24927002 17.94586,5.28930999 Z M16.32593,12.63678 C16.3191752,13.2074749 16.2143342,13.7727585 16.01599,14.30792 C15.7132467,15.0928479 15.0928461,15.7132521 14.30792,16.016 C13.7727565,16.2143373 13.2074742,16.319178 12.63678,16.32594 C11.68787,16.3692 11.40326,16.37836 9,16.37836 C6.59673999,16.37836 6.31213002,16.3692 5.36322002,16.32593 C4.79252637,16.3191713 4.22724407,16.2143339 3.69208,16.016 C3.30115027,15.8717562 2.94752965,15.6417089 2.65723,15.34278 C2.35829629,15.0524785 2.12824542,14.6988543 1.984,14.30792 C1.7856558,13.7727585 1.68081481,13.2074749 1.67406,12.63678 C1.6308,11.68774 1.62164,11.40314 1.62164,9 C1.62164,6.59686001 1.6308,6.31225998 1.67407,5.36322002 C1.68082875,4.79252637 1.78566614,4.22724407 1.984,3.69208 C2.12824383,3.30115027 2.35829116,2.94752965 2.65722,2.65723 C2.94752151,2.35829629 3.30114575,2.12824542 3.69208,1.984 C4.22724347,1.78566273 4.79252579,1.68082196 5.36322002,1.67406 C6.31225998,1.6308 6.59686001,1.62164 9,1.62164 C11.40314,1.62164 11.68774,1.6308 12.63678,1.67407 C13.2074742,1.68083196 13.7727565,1.78567272 14.30792,1.98401 C14.6988497,2.12825383 15.0524703,2.35830116 15.34277,2.65723 C15.6417025,2.94752863 15.8717533,3.30114933 16.016,3.69208 C16.2143373,4.22724347 16.319178,4.79252579 16.32594,5.36322002 C16.36921,6.31222002 16.37837,6.59691999 16.37837,9 C16.37837,11.40308 16.3692,11.68774 16.32593,12.63678 Z M9,4.37836 C6.44753871,4.37836 4.37836,6.44753871 4.37836,9 C4.37836,11.5524613 6.44753871,13.62164 9,13.62164 C11.5524613,13.62164 13.62164,11.5524613 13.62164,9 C13.6216124,6.44755014 11.5524499,4.37838761 9,4.37836 Z M9,12 C7.34314577,12 5.99999999,10.6568542 5.99999999,9 C5.99999999,7.34314577 7.34314577,5.99999999 9,5.99999999 C10.6568542,5.99999999 12,7.34314577 12,9 C12,9.79564945 11.6839295,10.5587112 11.1213203,11.1213203 C10.5587112,11.6839295 9.79564945,12 9,12 Z M14.88422,4.1958 C14.88422,4.79226753 14.4006875,5.2758 13.80422,5.2758 C13.2077525,5.2758 12.72422,4.79226753 12.72422,4.1958 C12.72422,3.59933247 13.2077525,3.1158 13.80422,3.1158 C14.4006875,3.1158 14.88422,3.59933247 14.88422,4.1958 Z"/>
</svg>
