<svg xmlns="http://www.w3.org/2000/svg" width="21" height="18" viewBox="0 0 21 18">
  <path fill="#363636" d="M14.0352763,10.472625 C13.2260296,10.472625 12.5700664,11.3805 12.5700664,12.4965 C12.5700664,13.61475 13.2260296,14.522625 14.0352763,14.522625 C14.844523,14.522625 15.5004862,13.61475 15.5004862,12.4965 C15.4993591,11.3805 14.844523,10.472625 14.0352763,10.472625 Z M19.1364608,5.20425 C19.3043965,4.793625 19.311159,2.460375 18.4207622,0.225 C18.4207622,0.225 16.3796121,0.448875 13.2914005,2.565 C12.6433269,2.385 11.5466736,2.29725 10.4522746,2.29725 C9.35562131,2.29725 8.26009514,2.385 7.61202156,2.565 C4.52268283,0.448875 2.48153275,0.225 2.48153275,0.225 C1.59226305,2.460375 1.60127973,4.793625 1.76696116,5.20425 C0.721026712,6.33825 0.0819697839,7.700625 0.0819697839,9.559125 C0.0819697839,17.643375 6.80277485,17.77275 8.49791,17.77275 C8.88337291,17.77275 9.64528204,17.775 10.4522746,17.775 C11.25814,17.775 12.0211762,17.77275 12.404385,17.77275 C14.1017743,17.77275 20.8203252,17.643375 20.8203252,9.559125 C20.8203252,7.700625 20.1823953,6.33825 19.1364608,5.20425 Z M10.4827058,16.779375 L10.4195891,16.779375 C6.16935333,16.779375 2.85797899,16.27425 2.85797899,12.15 C2.85797899,11.161125 3.20737519,10.245375 4.03803649,9.484875 C5.42096922,8.217 7.76305088,8.8875 10.4195891,8.8875 C10.43086,8.8875 10.4421308,8.8875 10.4522746,8.8875 C10.4635454,8.8875 10.4725621,8.8875 10.4827058,8.8875 C13.1392441,8.8875 15.4824528,8.217 16.8665126,9.484875 C17.6949197,10.245375 18.0443159,11.161125 18.0443159,12.15 C18.0443159,16.27425 14.7340687,16.779375 10.4827058,16.779375 Z M6.86814575,10.472625 C6.05889904,10.472625 5.40293585,11.3805 5.40293585,12.4965 C5.40293585,13.61475 6.05889904,14.522625 6.86814575,14.522625 C7.67851953,14.522625 8.33448273,13.61475 8.33448273,12.4965 C8.33448273,11.3805 7.67851953,10.472625 6.86814575,10.472625 Z"/>
</svg>
