<svg xmlns="http://www.w3.org/2000/svg" width="18" height="18" viewBox="0 0 18 18">
  <path fill="#363636" d="M8.58985713,6.56837145 C7.30945715,4.29231429 5.9394857,2.43582857 5.83954286,2.29911429 C3.77374286,3.27591428 2.23217143,5.17954284 1.75037143,7.47257144 C1.9446,7.47634284 5.03339999,7.51311428 8.58985713,6.56837145 Z M9.51197143,9.05751428 C9.60814287,9.02640002 9.70619999,8.99717144 9.80331431,8.9688857 C9.61757145,8.54742857 9.41485716,8.12502855 9.20271429,7.70922855 C5.38791431,8.85197142 1.72774286,8.76900002 1.59857143,8.76522857 C1.59574286,8.84442857 1.59197143,8.92174284 1.59197143,9.00094284 C1.59197143,10.9045715 2.31137143,12.6413143 3.49277143,13.9528286 L3.48805715,13.9471714 C3.48805715,13.9471714 5.5152,10.3511143 9.51197143,9.05751428 Z M4.44694286,14.8400572 L4.44694286,14.8362857 C4.39225714,14.7938571 4.3338,14.7552 4.27911429,14.709 C4.37905715,14.7891429 4.44694286,14.8400572 4.44694286,14.8400572 Z M7.22554286,1.80788571 C7.21894284,1.80977143 7.21139999,1.81165714 7.21139999,1.81165714 C7.21705716,1.80977143 7.22460002,1.80977143 7.22460002,1.80977143 L7.22554286,1.80788571 Z M13.8924857,3.44091429 C12.5875715,2.29251429 10.8762857,1.59197143 9,1.59197143 C8.39751431,1.59197143 7.81388573,1.66551429 7.25382855,1.80034286 C7.36697142,1.9512 8.75768571,3.79825714 10.0239429,6.12239999 C12.8166857,5.07677144 13.8717428,3.47108571 13.8924857,3.44091429 Z M9,17.6742857 C4.21028572,17.6742857 0.326657143,13.7906572 0.326657143,9.00094284 C0.325714286,4.20934286 4.20934286,0.325714286 9,0.325714286 C13.7916,0.325714286 17.6742857,4.20934286 17.6742857,9.00094284 C17.6742857,13.7906572 13.7916,17.6742857 9,17.6742857 Z M10.2596571,10.2125143 C5.91214284,11.7276857 4.47617143,14.7740571 4.44694286,14.8362857 C5.70471431,15.8178 7.28117145,16.4070857 8.99905716,16.4070857 C10.0248857,16.4070857 11.0026286,16.1987143 11.8908,15.8215714 C11.7814286,15.1719429 11.3505429,12.9024857 10.3077428,10.1955429 C10.2926571,10.2012 10.2766286,10.2068572 10.2596571,10.2125143 Z M10.5934286,7.22742858 C10.7669143,7.57911429 10.9309714,7.93834286 11.0865429,8.30134287 C11.1421715,8.42862857 11.1940286,8.55779999 11.2468286,8.68414284 C13.8048,8.36168571 16.3241143,8.90854286 16.4070857,8.92551429 C16.3891715,7.16897142 15.7602857,5.55762857 14.7222,4.2942 C14.7052286,4.31588571 13.5162857,6.03188573 10.5934286,7.22742858 Z M11.6975143,9.85328573 C12.6696,12.5272286 13.0637143,14.7014572 13.1391428,15.1436571 C14.8023428,14.0207143 15.9846857,12.2396571 16.3137429,10.1748 C16.1666572,10.1276572 14.0923714,9.47048571 11.6975143,9.85328573 Z"/>
</svg>
