<svg xmlns="http://www.w3.org/2000/svg" width="34" height="34" viewBox="0 0 34 34"><path d="M29.3207902,10.6554805 C29.334448,10.9331948 29.3395697,11.2143377 29.3395697,11.4920519 C29.3395697,20.0463377 22.8572134,29.906909 11.0039083,29.906909 C7.36238448,29.906909 3.97694533,28.8354805 1.12416226,26.9977663 C1.62950265,27.0577663 2.14167196,27.0886234 2.66067019,27.0886234 C5.68246913,27.0886234 8.46013404,26.0531948 10.6641693,24.320052 C7.84553089,24.266909 5.46394357,22.3983377 4.64447266,19.8269091 C5.0371358,19.9006234 5.44174956,19.940052 5.8566067,19.940052 C6.44560142,19.940052 7.01581657,19.8629091 7.5553016,19.7154806 C4.60691358,19.118909 2.385806,16.5046234 2.385806,13.3674805 C2.385806,13.3400519 2.385806,13.3143377 2.385806,13.2869091 C3.25478659,13.7720519 4.2501023,14.0634805 5.30517107,14.0977663 C3.57574603,12.9354805 2.43702293,10.9571948 2.43702293,8.70976623 C2.43702293,7.5251948 2.75456789,6.41262337 3.31112522,5.45605194 C6.48828218,9.37319481 11.2395062,11.9480519 16.5950899,12.2189091 C16.4858272,11.7440519 16.4294885,11.2520519 16.4294885,10.7429091 C16.4294885,7.17033766 19.3130018,4.27490909 22.8725786,4.27490909 C24.7266314,4.27490909 26.4014251,5.05833766 27.5777073,6.31662337 C29.0442187,6.0251948 30.4236614,5.48690909 31.66994,4.74633766 C31.1885009,6.25662337 30.1658695,7.5251948 28.8359366,8.32576624 C30.1402611,8.16805194 31.3797107,7.82348053 32.5372134,7.30748053 C31.6733545,8.60690909 30.5807266,9.74519481 29.3207902,10.6554805 Z"/></svg>
